<!DOCTYPE svg PUBLIC "-//W3C//DTD SVG 20010904//EN" "http://www.w3.org/TR/2001/REC-SVG-20010904/DTD/svg10.dtd">
<svg version="1.0" xmlns="http://www.w3.org/2000/svg" width="500px" height="200px" viewBox="0 0 5000 2000" preserveAspectRatio="xMidYMid meet">
<g>
    <path d="M2547 1682 c-64 -40 -72 -155 -18 -269 59 -125 147 -181 264 -168 48 5 57 4 57 -10 0 -9 9 -33 20 -55 11 -22 20 -41 20 -43 0 -2 -27 5 -60 16 -59 20 -61 20 -75 1 -24 -32 -24 -51 0 -101 32 -68 92 -135 119 -132 11 2 32 -3 45 -10 20 -11 27 -10 52 8 15 12 37 21 49 21 27 0 25 16 -6 52 -14 17 -50 82 -81 146 -49 98 -55 117 -44 134 10 17 9 20 -7 24 -12 4 -32 36 -57 92 -82 187 -174 312 -228 312 -12 0 -34 -8 -50 -18z m74 -33 c29 -15 103 -134 160 -255 27 -58 49 -107 49 -109 0 -12 -134 -4 -159 10 -47 24 -97 91 -120 160 -45 139 -10 237 70 194z m251 -560 c45 -36 74 -75 83 -112 11 -42 -14 -34 -91 31 -67 57 -98 97 -87 115 9 14 54 -2 95 -34z"/>
    <path d="M4022 1686 c-34 -18 -60 -63 -73 -124 -10 -50 -9 -57 21 -119 55 -119 143 -203 248 -237 56 -19 58 -22 38 -49 -13 -17 -17 -17 -51 -3 -53 23 -74 20 -85 -10 -11 -27 -14 -27 -68 14 -26 19 -41 23 -69 19 -62 -11 -78 -40 -49 -96 34 -64 170 -155 224 -149 21 2 28 9 30 31 2 15 9 27 18 27 23 0 17 17 -26 72 -38 47 -46 69 -27 70 4 0 28 -3 52 -7 37 -5 48 -12 61 -36 21 -42 83 -109 100 -109 22 0 17 18 -16 58 -16 20 -36 54 -45 75 -14 35 -14 37 2 37 52 0 219 -142 244 -206 11 -30 49 -33 49 -5 0 32 -160 347 -239 471 -84 131 -161 235 -200 267 -30 26 -101 31 -139 9z m106 -40 c41 -21 72 -59 160 -192 102 -155 137 -223 123 -237 -6 -6 -35 -11 -65 -11 -111 0 -276 112 -336 228 -33 64 -37 109 -16 160 25 60 78 81 134 52z m339 -500 c7 -22 12 -41 10 -42 -5 -5 -97 58 -97 66 0 9 35 18 59 16 8 0 20 -19 28 -40z m-347 -103 c38 -40 53 -83 30 -83 -44 0 -170 124 -170 168 0 22 95 -36 140 -85z"/>
    <path d="M3430 1217 c-42 -21 -31 -41 28 -48 101 -13 252 -101 356 -207 47 -49 48 -50 26 -62 -20 -11 -65 -10 -200 6 -39 5 -50 2 -73 -20 -41 -38 -35 -65 26 -110 71 -52 132 -82 239 -117 98 -32 128 -35 146 -17 21 21 14 41 -11 34 -32 -8 -154 27 -230 65 -78 40 -159 98 -151 110 3 5 68 9 144 9 151 0 170 6 170 56 0 52 -138 173 -277 242 -44 23 -168 75 -168 72 0 0 -11 -6 -25 -13z"/>
    <path d="M161 1166 c-9 -11 11 -51 92 -187 57 -96 134 -229 172 -296 37 -68 73 -123 81 -123 7 0 18 9 24 20 8 16 4 28 -25 65 -19 26 -54 79 -76 118 -23 40 -63 108 -89 152 -55 93 -94 170 -105 205 -15 52 -51 74 -74 46z"/>
    <path d="M708 1164 c-36 -19 -36 -50 0 -100 50 -68 160 -138 210 -132 21 2 28 9 30 31 2 15 9 27 18 27 22 0 17 18 -21 67 -19 25 -35 54 -35 63 0 16 5 17 62 4 64 -13 74 -12 64 4 -8 14 -123 45 -140 39 -9 -4 -16 -18 -16 -33 l0 -26 -49 36 c-53 39 -81 43 -123 20z m117 -70 c54 -35 95 -86 95 -118 0 -48 -95 19 -158 111 -45 64 -26 66 63 7z"/>
    <path d="M1103 1164 c-3 -9 -2 -22 3 -29 66 -93 93 -140 85 -148 -12 -12 -64 16 -118 65 -35 33 -46 39 -56 29 -9 -10 1 -25 50 -71 91 -86 163 -93 163 -17 l0 31 49 -48 c33 -32 55 -47 65 -43 24 9 19 38 -15 92 l-31 49 62 -58 c70 -64 119 -92 145 -82 13 5 5 15 -41 50 -33 24 -84 69 -114 100 -60 62 -85 69 -100 30 -8 -21 -6 -32 11 -57 12 -18 -14 3 -57 46 -44 42 -83 77 -87 77 -4 0 -10 -7 -14 -16z"/>
    <path d="M1468 1164 c-32 -17 -33 -23 -14 -67 30 -69 163 -167 227 -167 25 0 30 5 36 30 3 17 12 30 19 30 21 0 17 24 -10 49 -26 24 -63 87 -56 95 3 2 35 -3 73 -11 55 -12 71 -21 89 -47 41 -58 131 -146 150 -146 13 0 20 9 24 30 l6 29 32 -23 c76 -57 97 -41 76 61 -7 35 -10 66 -7 69 11 11 79 -27 126 -71 30 -28 52 -42 56 -35 4 6 1 19 -6 28 -86 114 -199 170 -215 106 -4 -14 -2 -48 4 -77 6 -29 8 -54 5 -57 -9 -9 -80 78 -109 135 -48 91 -73 50 -29 -48 58 -133 9 -110 -97 45 -40 58 -43 61 -46 36 l-3 -26 -60 20 c-65 22 -88 19 -96 -12 -7 -25 -5 -26 -55 10 -45 33 -79 37 -120 14z m157 -96 c35 -30 65 -76 65 -99 0 -16 -47 -3 -79 22 -38 30 -101 111 -101 132 0 16 3 16 40 -3 22 -11 56 -34 75 -52z"/>
    <path d="M2338 1164 c-32 -17 -33 -23 -14 -67 30 -69 163 -167 227 -167 25 0 30 5 36 30 3 17 12 30 19 30 21 0 17 24 -10 49 -26 24 -63 87 -55 95 2 2 31 -2 64 -9 32 -8 61 -12 63 -10 10 10 -12 23 -67 40 -49 15 -63 16 -76 5 -8 -7 -15 -19 -15 -26 0 -19 -5 -18 -52 16 -45 33 -79 37 -120 14z m157 -96 c35 -30 65 -76 65 -99 0 -16 -47 -3 -79 22 -38 30 -101 111 -101 132 0 16 3 16 40 -3 22 -11 56 -34 75 -52z"/>
    <path d="M3012 1164 c-44 -30 -23 -83 67 -167 61 -56 97 -75 126 -63 42 16 23 96 -38 163 -62 68 -119 92 -155 67z m102 -64 c42 -39 96 -124 85 -134 -10 -11 -49 7 -54 25 -4 10 -9 18 -13 17 -25 -5 -112 90 -112 121 0 25 52 9 94 -29z"/>
    <path d="M4634 1170 c-53 -21 -32 -83 58 -169 88 -85 148 -95 148 -26 0 48 -14 78 -56 125 -54 59 -111 86 -150 70z m105 -77 c50 -52 85 -113 72 -126 -12 -12 -39 2 -46 24 -4 10 -9 18 -13 17 -16 -5 -55 26 -82 64 -37 51 -38 68 -3 68 19 0 40 -14 72 -47z"/>
    <path d="M434 996 c-23 -10 -36 -26 -50 -61 l-18 -48 70 -66 c73 -70 239 -187 280 -197 27 -7 54 0 54 15 0 5 -33 28 -72 52 -107 63 -187 118 -235 162 -72 66 -52 97 60 97 108 0 157 10 157 31 0 17 -9 19 -94 19 -52 0 -100 2 -108 5 -7 2 -27 -2 -44 -9z"/>
</g>

</svg>